<svg width="122" height="186" viewBox="0 0 122 186" fill="none" xmlns="http://www.w3.org/2000/svg">
<path d="M90.8596 151.469L88.8227 264.088L88.5034 323.319L75.2816 324.096C75.2816 324.096 66.0038 270.587 70.7505 255.268C63.9066 228.988 62.2927 192.118 60.9204 152.47L90.8596 151.469Z" fill="#2E505B"/>
<path d="M67.376 169.662C67.376 169.662 67.376 230.792 75.3505 255.009C75.3505 255.009 69.7666 273.815 78.8027 320.212" stroke="#1C323E" stroke-width="1.29457" stroke-linecap="round" stroke-linejoin="round"/>
<path d="M75.2386 151.633C75.2386 151.633 77.6033 163.206 60.1439 178.284L47.3017 258.659L35.3312 322.016L22.3855 321.947C22.3855 321.947 24.9746 277.111 28.2629 249.891L34.5286 152.41L75.2386 151.633Z" fill="#42717C"/>
<path d="M91.222 156.88C89.7548 163.422 31.8874 179.432 31.8874 165.744C31.8874 156.345 34.7009 121.849 35.2533 106.987C35.2743 104.968 35.1532 102.949 34.8908 100.946C34.895 100.926 34.895 100.906 34.8908 100.886C34.8908 100.696 34.8908 100.515 34.8304 100.325C34.8304 100.282 34.8304 100.247 34.8304 100.204C34.7527 99.5393 34.6578 98.8661 34.5629 98.1757C34.5588 98.1587 34.5588 98.1409 34.5629 98.1239C34.5629 98.1239 34.5629 98.0462 34.5629 98.0031L34.5111 97.6838C34.3385 96.4496 34.1313 95.1637 33.9156 93.8432C33.8034 93.1182 33.6739 92.376 33.5531 91.6252C33.346 90.4428 33.1388 89.2432 32.9231 88.0263L32.5606 85.9981C30.3771 73.6133 28.1245 60.7453 30.9639 58.182C36.1422 53.5388 52.5402 47.1782 52.5402 47.1782L67.3328 47.3853C67.3328 47.3853 86.4321 51.5883 88.6329 56.5163C90.2036 59.9685 89.7203 73.6565 89.2456 86.7231C89.2456 87.5429 89.1852 88.3715 89.1593 89.1914C89.0903 91.0901 89.0212 92.9629 88.9695 94.7667V95.6988C88.9695 96.1907 88.9695 96.6826 88.9695 97.1746C88.9177 98.9525 88.8918 100.627 88.8745 102.241V102.517C88.8745 104.959 88.9263 107.652 89.0557 110.517C89.0557 111.38 89.1421 112.243 89.1939 113.106C90.2813 133.017 93.1639 148.397 91.222 156.88Z" fill="#F4F5F5"/>
<path d="M48.0522 98.8834L55.0084 86.6799L62.3184 98.8834L55.1896 111.777L48.0522 98.8834Z" fill="#D0D5DB"/>
<path d="M48.0695 98.8832L40.9321 111.777L34.8907 100.929C34.8949 100.909 34.8949 100.888 34.8907 100.868C34.8907 100.678 34.8907 100.497 34.8303 100.307C34.8303 100.264 34.8303 100.23 34.8303 100.186C34.7526 99.5219 34.6577 98.8487 34.5628 98.1583C34.5587 98.1413 34.5587 98.1235 34.5628 98.1065C34.5628 98.1065 34.5628 98.0288 34.5628 97.9857L34.511 97.6663L40.7681 86.6884L48.0695 98.8832Z" fill="#D0D5DB"/>
<path d="M62.3186 98.8834L69.2748 86.6799L76.5934 98.8834L69.456 111.777L62.3186 98.8834Z" fill="#D0D5DB"/>
<path d="M88.9695 95.7333C88.9695 96.2252 88.9695 96.7172 88.9695 97.2091C88.9177 98.987 88.8918 100.661 88.8745 102.275V102.551L83.7653 111.777L76.6365 98.8834L83.5841 86.6799L88.9695 95.7333Z" fill="#D0D5DB"/>
<path d="M77.8018 141.449H77.6896C68.6362 139.887 61.0673 131.886 56.3119 125.439C53.1655 121.15 50.4209 116.579 48.1129 111.786C48.0755 111.709 48.0542 111.625 48.05 111.539C48.0459 111.453 48.0592 111.367 48.089 111.287C48.1188 111.206 48.1646 111.132 48.2235 111.07C48.2825 111.007 48.3535 110.957 48.4322 110.923C48.5094 110.884 48.5936 110.862 48.6798 110.857C48.7659 110.852 48.8521 110.865 48.933 110.895C49.0139 110.925 49.0879 110.972 49.1502 111.031C49.2125 111.091 49.2619 111.163 49.2953 111.242C51.5708 115.962 54.2749 120.463 57.3734 124.689C61.9907 130.937 69.3007 138.696 77.9312 140.18C78.081 140.215 78.2134 140.302 78.3042 140.426C78.3949 140.55 78.4379 140.702 78.4253 140.855C78.4127 141.008 78.3454 141.152 78.2356 141.259C78.1259 141.367 77.981 141.431 77.8276 141.44L77.8018 141.449Z" fill="#D0D5DB"/>
<path d="M64.6056 59.3555C61.6904 59.3261 58.8121 58.7005 56.1477 57.5172C53.9022 56.554 51.8089 55.269 49.9338 53.7025C49.8489 53.5913 49.806 53.4537 49.8124 53.3139C49.8188 53.1742 49.8743 53.0411 49.969 52.9382C50.0638 52.8352 50.1917 52.7689 50.3305 52.7508C50.4692 52.7328 50.6099 52.7642 50.7278 52.8395C50.8141 52.9171 59.971 60.9694 70.4398 57.1547C70.5148 57.1185 70.5965 57.0983 70.6798 57.0956C70.763 57.0929 70.8458 57.1077 70.923 57.139C71.0002 57.1703 71.0699 57.2174 71.1277 57.2774C71.1855 57.3373 71.2302 57.4087 71.2587 57.4869C71.2872 57.5652 71.2989 57.6485 71.2932 57.7316C71.2875 57.8147 71.2645 57.8956 71.2255 57.9693C71.1866 58.0429 71.1326 58.1075 71.0672 58.159C71.0017 58.2104 70.9262 58.2476 70.8455 58.268C68.8443 58.9897 66.7329 59.3576 64.6056 59.3555Z" fill="#D0D5DB"/>
<path d="M76.9213 152.125C69.6026 152.125 62.6637 149.536 57.6925 147.015C53.5586 144.945 49.6608 142.433 46.0673 139.524C46.0047 139.473 45.9533 139.409 45.9162 139.337C45.879 139.265 45.857 139.186 45.8513 139.106C45.8457 139.025 45.8565 138.944 45.8833 138.867C45.91 138.791 45.9521 138.721 46.0069 138.661C46.0575 138.597 46.1209 138.545 46.1929 138.507C46.2649 138.469 46.344 138.447 46.4251 138.441C46.5063 138.435 46.5877 138.447 46.6643 138.474C46.7409 138.502 46.8109 138.545 46.8699 138.601C50.4003 141.449 54.2252 143.911 58.2794 145.945C64.4588 149.052 73.7367 152.323 82.8332 150.26C82.9122 150.234 82.9957 150.225 83.0785 150.233C83.1613 150.241 83.2415 150.267 83.3139 150.308C83.3862 150.349 83.4493 150.404 83.4988 150.471C83.5483 150.538 83.5833 150.614 83.6015 150.696C83.6196 150.777 83.6206 150.861 83.6043 150.943C83.588 151.024 83.5548 151.101 83.5068 151.169C83.4588 151.237 83.3971 151.294 83.3257 151.337C83.2542 151.38 83.1747 151.407 83.0921 151.417C81.0675 151.88 78.998 152.117 76.9213 152.125Z" fill="#D0D5DB"/>
<path d="M68.4981 155.784C64.2831 155.782 60.115 154.9 56.2601 153.195C56.1193 153.126 56.0116 153.004 55.9606 152.856C55.9097 152.708 55.9196 152.546 55.9882 152.405C56.0569 152.264 56.1787 152.157 56.3268 152.106C56.4749 152.055 56.6372 152.065 56.7779 152.133C56.8642 152.176 64.9079 156.026 73.9267 154.041C74.08 154.007 74.2403 154.035 74.3729 154.12C74.5054 154.204 74.5994 154.336 74.6344 154.489C74.6657 154.643 74.6364 154.802 74.5527 154.934C74.469 155.066 74.3374 155.16 74.1856 155.197C72.3163 155.596 70.4095 155.793 68.4981 155.784Z" fill="#D0D5DB"/>
<path d="M18.8465 106.202C19.6319 104.217 20.5726 102.068 21.5651 99.9449C22.3073 98.3396 23.0668 96.743 23.7831 95.2413C25.8372 90.926 28.0207 86.5245 30.4286 82.4336C30.8084 76.3923 30.8601 67.1577 28.0725 63.2912C26.8204 63.3786 25.6081 63.7682 24.5394 64.4265C23.4707 65.0848 22.5775 65.9924 21.9362 67.0714C19.8477 70.5753 17.7505 74.0966 15.6878 77.6869C13.6251 81.2771 11.6055 84.9278 9.64642 88.708C9.49107 89.01 9.33573 89.3121 9.18901 89.6142C7.46291 93.1095 5.73679 96.6998 4.28687 100.437C2.65076 104.535 1.29271 108.739 0.221921 113.02C-0.110554 114.381 -0.0687914 115.806 0.34276 117.145L0.394541 117.318L0.437683 117.439L0.515354 117.637L0.670696 118.008C0.768509 118.25 0.863459 118.483 0.955517 118.708C1.15402 119.156 1.34388 119.571 1.54238 120.002C1.93939 120.865 2.33638 121.668 2.75065 122.47C3.6137 124.084 4.47674 125.629 5.33979 127.148C7.13493 130.186 9.05954 133.086 11.0877 135.891C12.0888 137.298 13.1418 138.661 14.1947 140.016C15.2476 141.371 16.3351 142.709 17.4398 144.012C19.6492 146.619 21.9334 149.144 24.2924 151.59C25.2231 152.607 26.5128 153.223 27.8892 153.308C29.2655 153.392 30.6208 152.938 31.669 152.043C32.7172 151.147 33.3764 149.878 33.5072 148.506C33.6381 147.133 33.2305 145.763 32.3705 144.685C30.4775 142.148 28.6766 139.559 26.9678 136.918C26.1047 135.597 25.2935 134.26 24.4908 132.922C23.6882 131.584 22.9201 130.229 22.1779 128.857C20.7021 126.138 19.3385 123.359 18.1388 120.572C17.5433 119.182 16.9823 117.775 16.4818 116.395C16.335 116.006 16.2056 115.618 16.0761 115.229L15.9208 114.763C15.9898 114.548 16.0502 114.323 16.1193 114.099C16.8944 111.422 17.8047 108.787 18.8465 106.202Z" fill="#E69680"/>
<path d="M24.4393 100.644L31.7839 86.9731C31.7839 86.9731 35.1066 81.5013 35.3224 78.17C35.7108 72.1286 35.9351 69.4445 34.0451 63.3169C33.7257 62.2899 31.8874 58.4062 30.9381 58.1386C22.4802 62.6869 9.89696 82.071 8.49882 86.2481C8.48156 86.2654 13.6512 96.9672 24.4393 100.644Z" fill="#F4F5F5"/>
<path d="M9.28425 113.408C9.28425 113.553 9.34155 113.691 9.44352 113.793C9.54548 113.895 9.68377 113.952 9.82797 113.952C11.9679 114.086 14.0777 114.525 16.0937 115.255L15.9383 114.798C16.0074 114.574 16.0678 114.349 16.1369 114.125C14.1019 113.405 11.9745 112.981 9.81934 112.865C9.74833 112.865 9.67804 112.879 9.61255 112.906C9.54707 112.934 9.48768 112.974 9.43788 113.024C9.38808 113.075 9.34884 113.135 9.32247 113.201C9.29609 113.267 9.2831 113.337 9.28425 113.408Z" fill="#E06C5C"/>
<path d="M14.6181 114.763C14.7156 114.757 14.8099 114.726 14.8912 114.672C14.9725 114.617 15.038 114.543 15.081 114.455C15.124 114.367 15.1429 114.27 15.1359 114.172C15.1289 114.075 15.0962 113.981 15.041 113.9C14.0138 112.577 12.8573 111.36 11.5888 110.267C11.535 110.22 11.4724 110.184 11.4047 110.161C11.3369 110.138 11.2654 110.129 11.194 110.133C11.1227 110.138 11.053 110.157 10.989 110.189C10.9249 110.221 10.8677 110.265 10.8207 110.318C10.7737 110.372 10.7377 110.435 10.7149 110.503C10.692 110.57 10.6827 110.642 10.6875 110.713C10.6923 110.785 10.7111 110.854 10.7429 110.918C10.7746 110.982 10.8186 111.04 10.8725 111.087C12.0606 112.11 13.1473 113.246 14.1176 114.478C14.1675 114.567 14.2404 114.64 14.3285 114.69C14.4166 114.74 14.5167 114.765 14.6181 114.763Z" fill="#E06C5C"/>
<path d="M35.659 148L32.1464 156.017C28.3231 156.837 23.7576 150.839 23.7576 150.839C24.3185 147.551 25.803 144.798 29.1862 143.175C29.1862 143.175 32.5607 144.323 34.5371 145.013C34.8182 145.11 35.0751 145.266 35.2902 145.471C35.5054 145.676 35.6736 145.926 35.7834 146.202C35.8932 146.478 35.9421 146.775 35.9266 147.072C35.911 147.369 35.8316 147.659 35.6935 147.922L35.659 148Z" fill="#E69680"/>
<path d="M23.9043 151.365C23.9043 151.365 25.7253 144.78 29.4969 142.277C30.293 142.185 31.0979 142.346 31.7979 142.736C32.4979 143.126 33.0576 143.727 33.3978 144.452C33.3978 144.452 28.3835 152.384 27.6586 154.645C27.6499 154.645 24.6983 154.075 23.9043 151.365Z" fill="#182118"/>
<path d="M29.6952 146.014C30.2511 146.41 30.6803 146.958 30.9306 147.592C31.1809 148.227 31.2415 148.92 31.1051 149.589C30.9687 150.257 30.6411 150.871 30.1621 151.357C29.6832 151.843 29.0735 152.179 28.4071 152.324C27.7408 152.47 27.0465 152.419 26.4086 152.178C25.7706 151.936 25.2166 151.515 24.8137 150.964C24.4108 150.414 24.1764 149.758 24.1391 149.077C24.1017 148.396 24.263 147.719 24.6032 147.128C24.8644 146.72 25.2034 146.368 25.6006 146.092C25.9979 145.815 26.4458 145.62 26.9186 145.516C27.3915 145.413 27.8801 145.404 28.3565 145.489C28.8329 145.575 29.2878 145.753 29.6952 146.014Z" fill="#182118"/>
<path d="M29.0825 146.955C29.4936 147.244 29.8118 147.646 29.9983 148.113C30.1848 148.58 30.2314 149.09 30.1326 149.583C30.0337 150.076 29.7937 150.529 29.4416 150.888C29.0896 151.246 28.6409 151.495 28.1501 151.602C27.6593 151.71 27.1478 151.673 26.6778 151.495C26.2078 151.318 25.7997 151.007 25.5033 150.601C25.2069 150.195 25.035 149.712 25.0085 149.21C24.982 148.708 25.1021 148.21 25.3541 147.775C25.7401 147.172 26.3496 146.748 27.0487 146.594C27.7477 146.44 28.4792 146.57 29.0825 146.955Z" fill="#2E505B"/>
<path d="M34.5453 152.97C34.5453 152.97 39.7236 153.445 40.3364 155.197C40.9492 156.949 33.76 156.699 33.76 156.699C33.76 156.699 37.2985 157.337 37.5488 158.226C38.1356 160.229 33.0609 159.84 30.7566 159.219C28.4522 158.597 29.2894 156.5 30.2733 156.448C30.2733 156.448 29.134 153.989 30.6098 152.513C30.6098 152.513 29.0736 150.865 30.886 148.707C30.886 148.707 29.2894 145.565 31.5765 144.961C31.5765 144.961 32.1547 141.38 33.6391 141.449L33.5701 144.901C35.1322 144.901 38.9901 145.013 40.4745 145.453C42.3473 146.014 42.0625 148.905 34.8302 148.716C34.8302 148.716 40.8284 149.104 42.1488 150.882C43.4693 152.66 38.4291 153.022 34.5453 152.97Z" fill="#E69680"/>
<path d="M39.7931 77.9716C38.3187 79.6947 36.9607 81.514 35.7281 83.4175C35.3915 83.9353 35.0549 84.4531 34.7356 84.9623C34.0624 86.0325 33.4497 87.0595 32.8973 88.0003C32.7765 87.3271 32.6557 86.6539 32.5435 85.9721C34.3662 82.8392 36.4538 79.8681 38.7833 77.0913C38.9053 76.9886 39.0599 76.9325 39.2194 76.9331C39.3789 76.9337 39.533 76.9909 39.6542 77.0945C39.7755 77.1982 39.856 77.3415 39.8814 77.499C39.9068 77.6565 39.8755 77.8178 39.7931 77.9544V77.9716Z" fill="#D0D5DB"/>
<path d="M34.563 84.9882C34.3924 84.9981 34.2245 84.9418 34.0943 84.8312C33.9641 84.7205 33.8815 84.5639 33.8637 84.3939C33.8459 84.2239 33.8943 84.0536 33.9989 83.9184C34.1034 83.7832 34.256 83.6934 34.425 83.6678C36.1606 83.3075 37.9201 83.0739 39.6896 82.9687C39.7768 82.963 39.8643 82.9746 39.9471 83.0028C40.0299 83.0309 40.1064 83.0751 40.1721 83.1328C40.2378 83.1905 40.2915 83.2606 40.3302 83.3391C40.3688 83.4175 40.3916 83.5028 40.3972 83.5901C40.4029 83.6774 40.3913 83.7649 40.3632 83.8477C40.335 83.9305 40.2908 84.0069 40.2331 84.0726C40.1754 84.1383 40.1053 84.192 40.0269 84.2307C39.9484 84.2693 39.8631 84.2921 39.7759 84.2978C38.0746 84.4149 36.3825 84.6398 34.7097 84.971L34.563 84.9882Z" fill="#D0D5DB"/>
<path d="M120.92 113.037C119.857 108.754 118.498 104.55 116.855 100.454C115.379 96.7171 113.713 93.1268 111.961 89.6315L111.504 88.7253C109.579 84.9451 107.551 81.2944 105.462 77.7041C103.374 74.1138 101.302 70.5926 99.2139 67.0886C98.5734 66.0108 97.6815 65.104 96.6145 64.4457C95.5474 63.7874 94.3368 63.3972 93.0862 63.3085C90.359 67.1231 90.359 76.375 90.7474 82.4336C93.1467 86.5245 95.3302 90.9519 97.3929 95.2413C98.1092 96.743 98.8686 98.3396 99.6109 99.9449C100.595 102.068 101.544 104.217 102.329 106.202C103.365 108.791 104.28 111.458 105.039 114.125C105.109 114.349 105.169 114.574 105.229 114.789C105.29 115.005 105.134 115.1 105.083 115.255C104.953 115.644 104.815 116.032 104.677 116.42C104.176 117.801 103.615 119.208 103.02 120.598C101.812 123.385 100.431 126.164 98.9722 128.883C98.2386 130.255 97.4533 131.602 96.6679 132.948C95.8825 134.294 95.0453 135.623 94.1823 136.944C93.4228 138.095 92.6432 139.245 91.8434 140.396V153.048C92.7337 153.252 93.6614 153.222 94.5368 152.962C95.4121 152.702 96.2056 152.22 96.8405 151.564C99.2053 149.124 101.507 146.598 103.745 143.986C104.85 142.683 105.92 141.337 106.99 139.99C108.06 138.644 109.087 137.272 110.097 135.865C112.116 133.06 114.041 130.16 115.836 127.122C116.699 125.603 117.562 124.058 118.425 122.445C118.84 121.642 119.245 120.822 119.634 119.976C119.832 119.553 120.031 119.113 120.22 118.682C120.324 118.457 120.419 118.224 120.514 117.983L120.661 117.611L120.738 117.413L120.781 117.292L120.842 117.12C121.231 115.79 121.258 114.381 120.92 113.037Z" fill="#E69680"/>
<path d="M96.7283 100.644L89.3924 86.9731C89.3924 86.9731 86.8723 81.3546 85.8539 78.17C83.6963 71.4641 84.1278 69.3065 85.6382 62.6351C85.8798 61.5822 87.7095 56.5938 88.6588 56.378C97.1167 60.9263 111.271 82.1314 112.695 86.3085C112.695 86.2654 107.516 96.9672 96.7283 100.644Z" fill="#F4F5F5"/>
<path d="M111.935 113.408C111.935 113.553 111.878 113.691 111.776 113.793C111.674 113.895 111.536 113.952 111.391 113.952C109.251 114.085 107.141 114.524 105.126 115.255C105.177 115.1 105.229 114.945 105.272 114.798C105.316 114.651 105.152 114.349 105.083 114.125C107.115 113.406 109.239 112.982 111.391 112.865C111.463 112.865 111.534 112.879 111.599 112.906C111.665 112.933 111.725 112.973 111.776 113.024C111.826 113.074 111.866 113.134 111.894 113.2C111.921 113.266 111.935 113.337 111.935 113.408Z" fill="#E06C5C"/>
<path d="M106.559 114.763C106.467 114.754 106.378 114.725 106.3 114.677C106.178 114.599 106.093 114.476 106.062 114.336C106.032 114.195 106.058 114.048 106.136 113.926C107.161 112.601 108.317 111.384 109.588 110.293C109.641 110.246 109.703 110.21 109.77 110.187C109.837 110.164 109.908 110.155 109.978 110.16C110.049 110.165 110.118 110.184 110.181 110.215C110.245 110.247 110.301 110.291 110.347 110.345C110.449 110.447 110.506 110.585 110.506 110.729C110.506 110.873 110.449 111.011 110.347 111.113C109.156 112.136 108.066 113.272 107.094 114.504C107.038 114.593 106.958 114.665 106.863 114.711C106.769 114.756 106.663 114.775 106.559 114.763Z" fill="#E06C5C"/>
<path d="M89.6514 151.892C89.6514 151.892 84.4731 152.366 83.8604 154.118C83.2476 155.87 90.4369 155.62 90.4369 155.62C90.4369 155.62 86.8983 156.259 86.6394 157.148C86.0612 159.15 91.1359 158.762 93.4402 158.14C95.7446 157.519 94.8988 155.422 93.9235 155.37C93.9235 155.37 95.0628 152.91 93.5869 151.434C93.5869 151.434 95.1232 149.786 93.3108 147.628C93.3108 147.628 94.9074 144.487 92.6203 143.883C92.6203 143.883 92.7326 139.766 91.2481 139.835V143.719C89.6946 143.719 85.2068 143.909 83.6878 144.349C81.8236 144.91 82.1084 147.801 89.3408 147.611C89.3408 147.611 83.2994 147.999 82.0221 149.777C80.7448 151.555 85.7591 151.944 89.6514 151.892Z" fill="#E69680"/>
<path d="M89.2717 86.7573C89.2717 87.5772 89.2113 88.4057 89.1854 89.2256C88.6762 88.3626 88.1153 87.4305 87.5198 86.4811C87.2004 85.9633 86.8638 85.4541 86.5186 84.9363C85.2916 83.0283 83.9364 81.2059 82.4623 79.4818C82.3687 79.3469 82.3284 79.1821 82.3491 79.0192C82.3698 78.8563 82.45 78.7068 82.5744 78.5996C82.6987 78.4924 82.8584 78.435 83.0226 78.4386C83.1867 78.4421 83.3438 78.5063 83.4634 78.6187C85.6206 81.1669 87.5633 83.889 89.2717 86.7573Z" fill="#D0D5DB"/>
<path d="M87.5452 86.4811C85.8723 86.1507 84.1803 85.9258 82.4791 85.8079C82.3918 85.8028 82.3064 85.7806 82.2277 85.7424C82.1491 85.7043 82.0787 85.6511 82.0206 85.5858C81.9625 85.5205 81.9178 85.4443 81.8891 85.3618C81.8605 85.2792 81.8483 85.1918 81.8534 85.1045C81.8585 85.0172 81.8807 84.9318 81.9189 84.8532C81.957 84.7745 82.0102 84.7041 82.0755 84.646C82.1408 84.5879 82.217 84.5432 82.2995 84.5145C82.3821 84.4858 82.4695 84.4737 82.5568 84.4788C84.3291 84.5844 86.0914 84.818 87.83 85.1779C87.9158 85.1963 87.997 85.2315 88.0691 85.2814C88.1411 85.3313 88.2026 85.3951 88.2499 85.4689C88.2972 85.5427 88.3295 85.6251 88.3448 85.7114C88.3602 85.7978 88.3582 85.8863 88.3392 85.9719C88.3392 85.9719 88.1493 86.6364 87.5452 86.4811Z" fill="#D0D5DB"/>
<path d="M43.9961 15.9875C43.9961 15.9875 37.9548 8.22008 41.8385 2.61027C45.7222 -2.99955 53.7054 2.17874 53.7054 2.17874C53.7054 2.17874 62.3359 -0.84193 67.2985 1.74722C72.261 4.33636 72.4768 8.43584 72.4768 8.43584C73.3184 9.06747 74.0074 9.8801 74.4929 10.8137C74.9784 11.7474 75.248 12.7781 75.2817 13.8299C75.1556 16.2027 74.4279 18.5044 73.1672 20.5185L43.9961 15.9875Z" fill="#1C323E"/>
<path d="M46.3436 24.3935C46.3436 24.3935 42.7792 22.9436 41.8903 27.1467C41.0014 31.3497 45.4288 35.7771 48.9673 34.3358C48.9846 34.3272 48.156 26.18 46.3436 24.3935Z" fill="#E69680"/>
<path d="M48.0696 32.7564C47.9613 32.7539 47.8573 32.7138 47.7754 32.6429C47.6935 32.572 47.6388 32.4749 47.6208 32.3681C47.2622 30.4756 46.2134 28.7839 44.6778 27.6213C44.5764 27.5513 44.5063 27.4446 44.4821 27.3238C44.458 27.203 44.4817 27.0776 44.5483 26.974C44.5823 26.9229 44.6259 26.879 44.6769 26.8449C44.7278 26.8107 44.785 26.7869 44.8451 26.7749C44.9052 26.7629 44.9671 26.7629 45.0273 26.7748C45.0874 26.7867 45.1446 26.8104 45.1956 26.8445C46.9493 28.1434 48.1458 30.0584 48.5442 32.2041C48.5644 32.3263 48.536 32.4517 48.4651 32.5533C48.3941 32.6548 48.2862 32.7247 48.1645 32.7478L48.0696 32.7564Z" fill="#E06C5C"/>
<path d="M44.4708 30.4867C44.3875 30.4827 44.3066 30.4577 44.2356 30.4139C44.1646 30.3702 44.106 30.3091 44.0651 30.2364C44.0354 30.1823 44.017 30.1227 44.011 30.0613C44.0049 29.9999 44.0114 29.9379 44.0299 29.879C44.0485 29.8201 44.0787 29.7657 44.1189 29.7188C44.1591 29.6719 44.2083 29.6337 44.2636 29.6064C45.1239 29.1478 46.0962 28.9414 47.0685 29.0109C47.191 29.0337 47.2994 29.1043 47.3698 29.2071C47.4402 29.3099 47.4668 29.4364 47.444 29.5589C47.4211 29.6813 47.3505 29.7897 47.2477 29.8601C47.1449 29.9305 47.0184 29.9572 46.8959 29.9343C46.1304 29.897 45.3692 30.0701 44.6952 30.4349C44.6254 30.4693 44.5486 30.4871 44.4708 30.4867Z" fill="#E06C5C"/>
<path d="M71.5619 24.3935C71.5619 24.3935 75.1349 22.9436 76.0152 27.1467C76.8956 31.3497 72.4767 35.7771 68.9382 34.3358C68.9382 34.3272 69.7667 26.18 71.5619 24.3935Z" fill="#E69680"/>
<path d="M69.8616 32.7564C69.9699 32.7539 70.0739 32.7138 70.1558 32.6429C70.2377 32.572 70.2924 32.4749 70.3104 32.3681C70.669 30.4756 71.7178 28.7839 73.2534 27.6213C73.3548 27.5513 73.4249 27.4446 73.4491 27.3238C73.4733 27.203 73.4495 27.0776 73.3829 26.974C73.3489 26.9229 73.3052 26.879 73.2543 26.8449C73.2034 26.8107 73.1462 26.7869 73.0861 26.7749C73.026 26.7629 72.964 26.7629 72.9039 26.7748C72.8438 26.7867 72.7866 26.8104 72.7356 26.8445C70.9819 28.1434 69.7854 30.0584 69.387 32.2041C69.3668 32.3263 69.3952 32.4517 69.4661 32.5533C69.5371 32.6548 69.645 32.7247 69.7667 32.7478L69.8616 32.7564Z" fill="#E06C5C"/>
<path d="M73.4521 30.4867C73.5358 30.4844 73.6174 30.4601 73.6886 30.4161C73.7599 30.3722 73.8182 30.3102 73.8578 30.2364C73.8874 30.1823 73.9059 30.1227 73.9119 30.0613C73.918 29.9999 73.9115 29.9379 73.893 29.879C73.8744 29.8201 73.8441 29.7657 73.804 29.7188C73.7638 29.6719 73.7146 29.6337 73.6593 29.6064C72.799 29.1478 71.8268 28.9414 70.8544 29.0109C70.7319 29.0337 70.6235 29.1043 70.5531 29.2071C70.4827 29.3099 70.4561 29.4364 70.479 29.5589C70.5018 29.6813 70.5724 29.7897 70.6752 29.8601C70.7779 29.9305 70.9045 29.9572 71.0269 29.9343C71.7925 29.897 72.5537 30.0701 73.2278 30.4349C73.2975 30.4693 73.3743 30.4871 73.4521 30.4867Z" fill="#E06C5C"/>
<path d="M67.3761 49.7326C65.2062 51.5365 62.4735 52.524 59.6518 52.524C56.8301 52.524 54.0973 51.5365 51.9275 49.7326L52.1087 47.6526L53.0149 37.2443H66.0901L66.7115 43.2856L67.3761 49.7326Z" fill="#E69680"/>
<path d="M66.7114 43.2683C65.2184 45.1153 61.0067 48.8609 52.1086 47.6526L53.0149 37.2443H66.09L66.7114 43.2683Z" fill="#1C323E"/>
<path d="M72.1056 25.2047C71.9502 26.2835 71.7518 27.4141 71.5015 28.5792C71.1908 30.0378 70.8024 31.5395 70.3363 33.0153C68.1442 39.9974 64.1742 46.3839 57.9257 45.098C52.7474 44.0537 49.5628 38.6597 47.664 32.9549C47.1721 31.4877 46.801 29.9946 46.4213 28.5534C46.2055 27.6213 46.0243 26.7151 45.8603 25.852C45.4633 23.7375 45.213 21.8561 45.0663 20.458C44.9776 19.658 45.1045 18.8488 45.4338 18.1143C45.7631 17.3799 46.2828 16.7468 46.9391 16.2808C57.4079 8.86721 71.4151 13.7434 72.3731 17.9637C72.6402 20.3774 72.5501 22.8173 72.1056 25.2047Z" fill="#E69680"/>
<path d="M62.603 23.349C62.603 23.349 62.836 21.1914 64.5362 21.0792C66.2365 20.967 68.7825 21.7955 68.6703 23.9963L62.603 23.349Z" fill="#1C323E"/>
<path d="M56.6397 23.349C56.6397 23.349 56.4066 21.1914 54.7064 21.0792C53.0062 20.967 50.4602 21.7955 50.5724 23.9963L56.6397 23.349Z" fill="#1C323E"/>
<path d="M73.5037 17.0059C73.3915 21.2434 71.5187 29.5287 70.8542 29.2007C70.1896 28.8728 70.8542 23.6082 70.8542 22.0288L70.3277 17.7136L71.1217 15.9875C67.5412 13.905 63.4232 12.9319 59.2893 13.1912C52.0224 13.5796 47.9316 16.0738 47.9316 16.0738L48.7946 17.7222C48.6652 19.034 47.5087 24.1519 47.5087 24.1519C47.4051 24.7474 47.1721 28.9936 46.8096 28.8814C46.1105 28.657 45.0404 20.9414 44.5484 19.5864C44.1967 18.4537 44.0563 17.2659 44.1342 16.0824C44.3154 13.0876 45.8602 8.93636 52.1432 6.10556C59.764 2.65337 72.2523 4.83688 73.5209 15.6595C73.5436 16.1082 73.5378 16.5579 73.5037 17.0059Z" fill="#1C323E"/>
<path d="M73.5035 17.0058L70.3016 17.7221L71.0956 15.996C67.5235 13.9156 63.4153 12.9396 59.2891 13.1911C52.0222 13.5795 47.9314 16.0737 47.9314 16.0737L48.7944 17.7221L44.134 16.0823C43.6852 13.3206 45.4286 8.06462 51.6943 5.23382C59.315 1.78163 72.5973 3.8961 73.5208 15.6595C73.4862 16.0306 73.5121 16.488 73.5035 17.0058Z" fill="#1C323E"/>
<path d="M53.602 29.6925C53.602 30.4348 52.4541 31.0475 51.0128 31.0648C49.5716 31.082 48.4237 30.5038 48.3805 29.7616C48.3374 29.0194 49.5284 28.4152 50.9697 28.398C52.411 28.3807 53.5934 28.9589 53.602 29.6925Z" fill="#E06C5C"/>
<path d="M69.9135 29.6925C69.9135 30.4348 68.7656 31.0475 67.3243 31.0648C65.8831 31.082 64.7352 30.5038 64.6921 29.7616C64.6489 29.0194 65.8399 28.4152 67.2812 28.398C68.7225 28.3807 69.9049 28.9589 69.9135 29.6925Z" fill="#E06C5C"/>
<path d="M72.3472 24.9805C72.1918 26.0594 71.7516 27.4143 71.4841 28.5795C71.1734 30.038 70.7851 31.5397 70.319 33.0155C68.1269 39.9976 64.1568 46.3842 57.9083 45.0982C52.73 44.0539 49.5454 38.6599 47.6467 32.9551C47.1548 31.4879 46.7837 29.9949 46.4039 28.5536C46.1882 27.6215 45.8429 26.2837 45.679 25.4207H47.4051C47.4051 25.4207 49.5799 34.2928 52.4366 34.8625C55.2933 35.4321 54.6288 32.6703 60.1436 34.5431C60.8971 34.1067 61.7424 33.8529 62.6116 33.8019C63.4809 33.7509 64.35 33.9043 65.1493 34.2497C67.5486 35.294 68.2304 33.9131 69.1625 32.4718C70.0946 31.0305 70.6383 24.9547 70.6383 24.9547L72.3472 24.9805Z" fill="#1C323E"/>
<path d="M55.0347 35.6993C55.0347 35.6993 60.6531 36.5624 64.2607 35.6993C64.2607 35.6993 63.1301 39.4622 59.5311 39.4622C56.476 39.5054 55.0347 35.6993 55.0347 35.6993Z" fill="#F4F5F5"/>
<path d="M55.1638 26.7498C55.1638 27.4834 54.8617 28.0789 54.4647 28.0875C54.0677 28.0961 53.7225 27.5093 53.7052 26.7757C53.688 26.0421 54.0159 25.4552 54.4129 25.4466C54.81 25.4379 55.1552 26.0248 55.1638 26.7498Z" fill="#1C323E"/>
<path d="M63.8118 26.7498C63.8118 27.4834 64.1138 28.0789 64.5195 28.0875C64.9251 28.0961 65.2531 27.5093 65.2703 26.7757C65.2876 26.0421 64.9682 25.4552 64.5626 25.4466C64.157 25.4379 63.8204 26.0248 63.8118 26.7498Z" fill="#1C323E"/>
<path d="M60.0053 33.1967C59.5599 33.1843 59.1171 33.1235 58.6848 33.0155C58.5704 32.9892 58.4711 32.9185 58.4088 32.8189C58.3465 32.7194 58.3263 32.5992 58.3526 32.4847C58.3789 32.3703 58.4496 32.271 58.5491 32.2087C58.6487 32.1463 58.7689 32.1261 58.8833 32.1525C59.3391 32.2728 59.8107 32.3223 60.2815 32.2992C60.2815 31.6087 59.7809 28.4586 59.3321 25.6537C59.3235 25.5998 59.3256 25.5448 59.3383 25.4918C59.351 25.4388 59.3741 25.3888 59.4062 25.3447C59.4383 25.3006 59.4787 25.2632 59.5253 25.2348C59.5718 25.2064 59.6235 25.1874 59.6774 25.179C59.732 25.1679 59.7883 25.1681 59.8428 25.1797C59.8973 25.1913 59.9488 25.214 59.9942 25.2464C60.0395 25.2788 60.0777 25.3202 60.1064 25.368C60.135 25.4158 60.1535 25.469 60.1607 25.5242C60.4023 27.0173 61.1877 31.9281 61.11 32.5063C61.1005 32.5992 61.0699 32.6887 61.0206 32.768C60.9712 32.8473 60.9044 32.9142 60.8252 32.9637C60.5806 33.1199 60.2955 33.2009 60.0053 33.1967Z" fill="#E06C5C"/>
</svg>
