<svg width="223" height="149" viewBox="0 0 223 149" fill="none" xmlns="http://www.w3.org/2000/svg">
<path d="M80.7809 3.68511C72.7904 9.60612 71.014 22.3531 77.071 30.2691C67.2328 24.9252 53.7347 25.481 46.0083 33.5752C38.2818 41.6694 39.5874 57.2735 49.7038 62.14C40.8573 61.0997 31.8038 60.0737 23.1285 62.1044C14.4532 64.135 6.11318 69.8637 3.50202 78.3711C0.890865 86.8786 6.13459 97.6661 14.9669 98.8275C2.83854 99.8393 -3.62515 116.163 2.12511 126.908C7.87536 137.653 21.559 142.17 33.673 140.702C45.7871 139.234 56.7311 133.007 67.2043 126.744C67.561 135.009 76.4004 139.925 84.1554 142.847C91.2897 145.533 99.0233 147.948 106.472 146.267C113.92 144.585 120.626 137.303 118.921 129.879C137.977 150 171.765 154.048 195.044 138.999C218.323 123.951 228.468 91.5028 217.874 65.9021C212.937 53.9603 202.014 42.8308 189.115 43.8141C186.718 27.6684 176.695 12.2211 161.712 5.71578C146.73 -0.789501 127.075 3.4001 117.908 16.9165C109.161 7.04819 94.5858 -6.66064 80.7809 3.68511Z" fill="#CACEEA"/>
</svg>
