<svg width="164" height="197" viewBox="0 0 164 197" fill="none" xmlns="http://www.w3.org/2000/svg">
<path opacity="0.8" d="M156.675 69.7196C154.143 67.8771 148.979 67.2204 143.143 74.1024C137.306 80.9845 125.65 92.8028 121.173 96.7853C116.696 100.768 111.443 106.704 109.328 105.009C107.213 103.314 109.535 95.3394 112.537 89.7103C116.928 81.3025 120.888 72.6768 124.402 63.8667C126.77 57.2489 134.568 42.1344 135.63 38.7997C136.157 36.9922 136.048 35.0586 135.321 33.3217C134.595 31.5849 133.294 30.1499 131.637 29.2563C127.847 27.0212 123.385 27.9854 119.046 35.7898C114.707 43.5941 110.348 54.2679 108.177 58.9536C106.006 63.6394 92.6474 87.208 90.1202 90.2827C87.593 93.3575 83.7067 90.653 84.8027 85.7865C85.8987 80.92 88.1308 65.0192 88.7442 58.037C89.3576 51.0548 90.688 38.7649 91.2796 34.2395C91.8712 29.7141 93.7383 19.2633 94.0513 16.4492C94.3643 13.6351 94.695 7.98441 87.8927 6.74121C81.0904 5.498 77.811 11.304 76.8767 16.4303C75.9425 21.5566 74.5176 29.8795 73.1604 34.7097C71.8032 39.5398 69.0848 53.3742 68.134 59.8028C67.1832 66.2313 66.5748 84.648 61.7732 84.2169C56.9716 83.7858 55.2188 60.6192 54.3626 55.6042C53.5065 50.5893 52.591 39.8445 51.603 35.4795C50.6149 31.1144 50.8638 12.8684 40.9671 13.9143C31.0703 14.9602 32.4076 24.7142 32.8897 30.5256C33.3718 36.3371 35.4628 58.094 35.8425 66.5542C36.2222 75.0143 39.7238 102.307 34.8469 110.895C29.97 119.484 28.8176 116.195 25.6018 109.664C22.3859 103.133 19.4178 92.6945 13.1349 86.5739C9.44722 82.9936 1.6282 77.7627 -3.81245 80.9624C-9.2531 84.1621 -4.68285 86.9846 -2.58849 92.4237C-0.494134 97.8628 3.53968 113.382 6.52863 118.774C9.51757 124.165 9.03386 132.263 10.3826 136.441C13.0686 144.515 19.6892 154.44 22.4171 160.01C25.145 165.579 30.783 175.842 33.8891 178.173C36.1132 180.587 38.7572 182.577 41.6923 184.047C46.7861 186.711 59.3607 186.034 65.652 187.271C71.6504 188.453 78.6911 193.938 86.7346 190.359C91.0193 188.474 94.1812 183.995 95.4677 181.833C98.319 177.1 105.955 163.903 108.035 158.039C110.114 152.175 114.357 139.991 116.77 136.033C119.183 132.075 121.633 122.197 121.633 122.197C121.633 122.197 133.126 108.617 137.478 104.113C141.83 99.6099 153.255 87.576 156.729 81.8178C160.203 76.0596 159.261 71.5167 156.675 69.7196Z" fill="#FAF6E2"/>
</svg>
