<svg width="26" height="25" viewBox="0 0 26 25" fill="none" xmlns="http://www.w3.org/2000/svg">
<circle cx="5.69838" cy="5.69838" r="5.69838" fill="white"/>
<path d="M2 15.6813C2 14.6446 2.84041 13.8042 3.87711 13.8042H10.9833V20.9104C10.9833 21.9471 10.1429 22.7875 9.10621 22.7875H3.87711C2.84041 22.7875 2 21.9471 2 20.9104V15.6813Z" fill="white"/>
<path d="M23 9.51937C23 10.5561 22.1596 11.3965 21.1229 11.3965H14.0167V4.29027C14.0167 3.25357 14.8571 2.41316 15.8938 2.41316H21.1229C22.1596 2.41316 23 3.25357 23 4.29027V9.51937Z" fill="white"/>
<path d="M25.2627 15.6813C25.2627 14.6446 24.4223 13.8042 23.3856 13.8042H14V23.1227C14 24.1594 14.8404 24.9998 15.8771 24.9998H23.3856C24.4223 24.9998 25.2627 24.1594 25.2627 23.1227V15.6813Z" fill="white"/>
</svg>
